<?xml version="1.0" encoding="UTF-8" standalone="no"?>
<!-- Created with Inkscape (http://www.inkscape.org/) -->

<svg
   xmlns:dc="http://purl.org/dc/elements/1.1/"
   xmlns:cc="http://creativecommons.org/ns#"
   xmlns:rdf="http://www.w3.org/1999/02/22-rdf-syntax-ns#"
   xmlns:svg="http://www.w3.org/2000/svg"
   xmlns="http://www.w3.org/2000/svg"
   xmlns:sodipodi="http://sodipodi.sourceforge.net/DTD/sodipodi-0.dtd"
   xmlns:inkscape="http://www.inkscape.org/namespaces/inkscape"
   width="171.5054"
   height="139.37839"
   id="svg2"
   version="1.1"
   inkscape:version="0.48.4 r9939"
   sodipodi:docname="Twitter_bird_logo_2012.svg">
  <defs
     id="defs4" />
  <sodipodi:namedview
     id="base"
     pagecolor="#ffffff"
     bordercolor="#666666"
     borderopacity="1.0"
     inkscape:pageopacity="0.0"
     inkscape:pageshadow="2"
     inkscape:zoom="2.6304776"
     inkscape:cx="56.718296"
     inkscape:cy="47.590413"
     inkscape:document-units="px"
     inkscape:current-layer="layer1"
     showgrid="false"
     inkscape:window-width="1366"
     inkscape:window-height="721"
     inkscape:window-x="-4"
     inkscape:window-y="-4"
     inkscape:window-maximized="1"
     fit-margin-top="0"
     fit-margin-left="0"
     fit-margin-right="0"
     fit-margin-bottom="0" />
  <metadata
     id="metadata7">
    <rdf:RDF>
      <cc:Work
         rdf:about="">
        <dc:format>image/svg+xml</dc:format>
        <dc:type
           rdf:resource="http://purl.org/dc/dcmitype/StillImage" />
      </cc:Work>
    </rdf:RDF>
  </metadata>
  <g
     inkscape:label="Layer 1"
     inkscape:groupmode="layer"
     id="layer1"
     transform="translate(-282.32053,-396.30734)">
    <path
       style="fill:#2aa9e0"
       inkscape:connector-curvature="0"
       id="path5"
       d="m 453.82593,412.80619 c -6.3097,2.79897 -13.09189,4.68982 -20.20852,5.54049 7.26413,-4.35454 12.84406,-11.24992 15.47067,-19.46675 -6.79934,4.03295 -14.3293,6.96055 -22.34461,8.53841 -6.41775,-6.83879 -15.56243,-11.111 -25.68298,-11.111 -19.43159,0 -35.18696,15.75365 -35.18696,35.18525 0,2.75781 0.31128,5.44359 0.91155,8.01875 -29.24344,-1.46723 -55.16995,-15.47582 -72.52461,-36.76396 -3.02879,5.19662 -4.76443,11.24048 -4.76443,17.6891 0,12.20777 6.21194,22.97747 15.65332,29.28716 -5.76773,-0.18265 -11.19331,-1.76565 -15.93716,-4.40083 -0.004,0.14663 -0.004,0.29412 -0.004,0.44248 0,17.04767 12.12889,31.26806 28.22555,34.50266 -2.95247,0.80436 -6.06101,1.23398 -9.26989,1.23398 -2.2673,0 -4.47114,-0.22124 -6.62011,-0.63114 4.47801,13.97857 17.47214,24.15143 32.86992,24.43441 -12.04227,9.43796 -27.21366,15.06335 -43.69965,15.06335 -2.84014,0 -5.64082,-0.16722 -8.39349,-0.49223 15.57186,9.98421 34.06703,15.8094 53.93768,15.8094 64.72024,0 100.11301,-53.61524 100.11301,-100.11387 0,-1.52554 -0.0343,-3.04251 -0.10204,-4.55261 6.87394,-4.95995 12.83891,-11.15646 17.55618,-18.21305 z" />
    <path
       style="fill:#162d50;fill-opacity:1;fill-rule:nonzero;stroke:#162d50;stroke-width:0.76031822;stroke-miterlimit:4;stroke-opacity:1;stroke-dasharray:none"
       d="M 43.374711,138.57235 C 34.618123,137.61481 25.96166,135.52886 18.279528,132.52518 13.940709,130.82871 5.3519319,126.62866 2.6976877,124.90541 l -1.5206364,-0.98727 3.4214319,0.23677 c 4.2641439,0.29509 12.8486128,-0.36796 17.8674778,-1.38005 10.068626,-2.03043 20.259328,-6.51124 27.87631,-12.25712 l 2.1006,-1.58459 -2.822701,-0.28418 C 38.880984,107.5678 29.569753,101.97088 23.654319,93.041059 c -1.739688,-2.626196 -4.039551,-7.230813 -4.039551,-8.087691 0,-0.133508 0.440908,-0.132083 0.979797,0.003 2.549287,0.639831 11.450216,0.148224 14.226567,-0.785747 C 35.134763,84.065157 33.509583,83.34539 31.20962,82.571181 26.477883,80.978516 22.765517,78.900783 19.408465,75.966437 14.433598,71.617991 10.96143,66.466546 8.9413554,60.437025 7.8508811,57.182179 6.665964,50.095242 7.1339847,49.627224 c 0.1111855,-0.111185 1.2968987,0.309651 2.6349181,0.935195 2.7974482,1.307846 7.4092502,2.498117 10.9863422,2.835493 l 2.471034,0.23306 -1.520636,-1.238288 C 15.382286,47.243429 11.482308,41.85497 9.218261,35.139312 6.5046572,27.090174 7.0083482,17.514681 10.549473,9.8321128 c 0.656981,-1.4253374 1.279199,-2.5915222 1.382708,-2.5915222 0.103508,0 2.241654,2.1482319 4.751435,4.7738484 8.665959,9.065927 17.751112,15.764987 28.590758,21.081781 11.865997,5.820215 23.032137,8.912886 36.442987,10.093565 l 2.987853,0.263047 -0.32674,-1.664238 C 83.807935,38.882567 84.035301,29.365688 84.736645,26.796526 89.38663,9.7627121 104.71113,-1.0620369 122.02649,0.45614174 c 4.52101,0.39639368 7.45799,1.22957456 11.87853,3.36977506 3.41247,1.6521399 8.56148,5.2380351 9.94455,6.9256162 0.44607,0.544283 0.88044,0.49935 4.56191,-0.471899 5.48294,-1.4465166 9.04776,-2.760462 13.51225,-4.9804342 2.05753,-1.02311 3.81101,-1.8602002 3.89663,-1.8602002 0.72957,0 -1.37861,4.6451538 -3.57572,7.8787084 -2.28146,3.357696 -4.76486,5.943953 -8.17881,8.517571 l -3.10609,2.341541 2.28095,-0.275735 c 3.49553,-0.42256 9.48056,-1.911974 13.59069,-3.382134 2.0386,-0.729191 3.70655,-1.237477 3.70655,-1.129524 0,0.107953 -1.15049,1.669651 -2.55665,3.470439 -2.95679,3.786596 -8.37032,9.19538 -11.78489,11.774557 l -2.36652,1.787543 -0.009,4.781003 c -0.0447,22.594809 -8.14944,45.354459 -22.72053,63.803901 -6.22296,7.8793 -16.4415,16.91779 -24.89935,22.02394 -7.524756,4.54282 -17.919017,8.89844 -26.330535,11.03355 -11.033821,2.80073 -25.025273,3.76224 -36.495274,2.50799 l 0,0 z"
       id="path2983"
       inkscape:connector-curvature="0"
       transform="translate(282.32053,396.30734)" />
  </g>
</svg>
